<svg xmlns="http://www.w3.org/2000/svg" viewBox="0 0 360 350" fill="none">
  <defs><pattern id="grid" width="24" height="24" patternUnits="userSpaceOnUse"><path d="M24 0H0V24" stroke="#dceef8"/></pattern></defs>
  <rect width="360" height="350" rx="20" fill="#f4fbff"/>
  <rect width="360" height="350" rx="20" fill="url(#grid)"/>
  <g stroke="#1765a0" stroke-width="3" stroke-linejoin="round"><path d="M114 84H270V98H114Z" fill="#d8f0fc"/><path d="M120 98H136V284H120Z M248 98H264V284H248Z" fill="#eaf7fe"/><path d="M136 194H248V208H136Z" fill="#d8f0fc"/></g>
  <g stroke="#eb8c25" stroke-width="1.8"><path d="M114 68V40 M270 68V40 M114 50H270 M98 84H70 M98 284H70 M82 84V284"/><path d="m114 50 8-4v8z m156 0-8-4v8z M82 84l-4 8h8z M82 284l-4-8h8z" fill="#eb8c25" stroke="none"/></g>
  <g font-family="Arial, sans-serif" font-size="25" font-weight="700" fill="#a65b10" text-anchor="middle"><text x="192" y="39">350</text><text transform="translate(64 184) rotate(-90)">450</text></g>
  <text x="192" y="318" font-family="Arial, sans-serif" font-size="20" font-weight="700" fill="#1765a0" text-anchor="middle">Tampak depan · mm</text>
</svg>
